<svg xmlns="http://www.w3.org/2000/svg" viewBox="0 0 125 125" width="125" height="125"><path d="M98.064 62.498a36.05 36.05 0 0 0-.305-4.616l10.36-9.518a47.494 47.494 0 0 0-3.424-8.207l-14.03.596a35.97 35.97 0 0 0-6.532-6.533l.59-13.961a47.465 47.465 0 0 0-8.28-3.41l-9.44 10.277a35.928 35.928 0 0 0-4.62-.308c-1.565 0-3.104.112-4.619.308l-9.382-10.209a47.393 47.393 0 0 0-8.333 3.491l.585 13.813a35.886 35.886 0 0 0-6.533 6.533l-13.743-.582a47.47 47.47 0 0 0-3.477 8.406l10.125 9.304a36.049 36.049 0 0 0-.308 4.616c0 1.568.113 3.108.308 4.621l-10.124 9.304a47.404 47.404 0 0 0 3.477 8.407l13.742-.583a35.76 35.76 0 0 0 6.533 6.533l-.585 13.814a47.447 47.447 0 0 0 8.334 3.491l9.381-10.211a35.72 35.72 0 0 0 4.618.309c1.566 0 3.105-.111 4.62-.309l9.44 10.277a47.276 47.276 0 0 0 8.28-3.409l-.59-13.963a35.812 35.812 0 0 0 6.531-6.533l14.032.599a47.44 47.44 0 0 0 3.424-8.209l-10.36-9.518c.195-1.511.306-3.051.306-4.62zM62.533 81.911c-10.722 0-19.413-8.689-19.413-19.41 0-10.72 8.69-19.41 19.413-19.41 10.72 0 19.408 8.69 19.408 19.41 0 10.721-8.689 19.41-19.409 19.41z"/></svg>