<?xml version="1.0" encoding="UTF-8" standalone="no"?>
<svg
   xmlns:dc="http://purl.org/dc/elements/1.1/"
   xmlns:cc="http://creativecommons.org/ns#"
   xmlns:rdf="http://www.w3.org/1999/02/22-rdf-syntax-ns#"
   xmlns:svg="http://www.w3.org/2000/svg"
   xmlns="http://www.w3.org/2000/svg"
   xmlns:sodipodi="http://sodipodi.sourceforge.net/DTD/sodipodi-0.dtd"
   xmlns:inkscape="http://www.inkscape.org/namespaces/inkscape"
   version="1.1"
   x="0px"
   y="0px"
   viewBox="0 0 125 125"
   xml:space="preserve"
   id="svg2"
   inkscape:version="0.91 r13725"
   sodipodi:docname="vis-graph.svg"
   width="125"
   height="125"><metadata
     id="metadata14"><rdf:RDF><cc:Work
         rdf:about=""><dc:format>image/svg+xml</dc:format><dc:type
           rdf:resource="http://purl.org/dc/dcmitype/StillImage" /><dc:title></dc:title></cc:Work></rdf:RDF></metadata><defs
     id="defs12" /><sodipodi:namedview
     pagecolor="#ffffff"
     bordercolor="#666666"
     borderopacity="1"
     objecttolerance="10"
     gridtolerance="10"
     guidetolerance="10"
     inkscape:pageopacity="0"
     inkscape:pageshadow="2"
     inkscape:window-width="1239"
     inkscape:window-height="794"
     id="namedview10"
     showgrid="false"
     inkscape:zoom="1.888"
     inkscape:cx="-27.330508"
     inkscape:cy="62.5"
     inkscape:window-x="160"
     inkscape:window-y="143"
     inkscape:window-maximized="0"
     inkscape:current-layer="svg2" /><path
     d="m 82.314408,81.098655 c -3.060538,0 -5.650224,1.647982 -7.062781,4.080718 L 60.341314,76.860987 c 1.177129,-2.040358 1.883408,-4.473094 1.883408,-6.984305 0,-6.984305 -5.257848,-12.79148 -12.006727,-13.654708 l 1.17713,-12.869956 c 0.07848,0 0.156951,0 0.235426,0 4.394619,0 7.926009,-3.53139 7.926009,-7.926009 0,-4.394618 -3.53139,-7.926009 -7.926009,-7.926009 -4.316144,0 -7.926009,3.531391 -7.926009,7.926009 0,4.002242 2.982063,7.376682 6.90583,7.847534 l -1.177131,12.869955 c -0.313901,0 -0.706277,-0.07848 -1.020179,-0.07848 -7.612107,4e-6 -13.811659,6.199555 -13.811659,13.811663 0,7.690583 6.199552,13.811659 13.811659,13.811659 4.786996,0 9.024664,-2.432736 11.457399,-6.121076 l 14.98879,8.318385 c -0.470852,1.02018 -0.784754,2.19731 -0.784754,3.452915 0,4.551571 3.688341,8.161436 8.161436,8.161436 4.551569,0 8.161435,-3.688341 8.161435,-8.161436 0.07848,-4.551569 -3.609866,-8.239911 -8.08296,-8.239911 z"
     id="path4"
     inkscape:connector-curvature="0"
     style="fill:#222222;fill-opacity:1" /></svg>